<svg xmlns="http://www.w3.org/2000/svg" viewBox="0 0 247.64 45.34"><defs><style>.cls-1{fill:#ffa41b;stroke:#f3f3f3;stroke-miterlimit:10;stroke-width:0.4px;}</style></defs><title>Ресурс 8</title><g id="Слой_2" data-name="Слой 2"><g id="Слой_1-2" data-name="Слой 1"><path class="cls-1" d="M35.57,19.87c-.07-3.18-.1-4.77-.89-6.57a8.8,8.8,0,0,0-4.12-4.68A7.45,7.45,0,0,0,28.22,8l-22.4.44a6.86,6.86,0,0,0-2.9,1,6,6,0,0,0-1.68,1.53,6.12,6.12,0,0,0-.77,1.59C0,14,.14,26.21.8,42.94H12.62V32.8l15-.33a8.6,8.6,0,0,0,1.9-.34,8,8,0,0,0,3.9-2.56A8.83,8.83,0,0,0,35,25.89,21.69,21.69,0,0,0,35.57,19.87ZM23.8,21.27a2.55,2.55,0,0,1-.66,1.56,2.17,2.17,0,0,1-1.34.56H12.33V18.15a1.27,1.27,0,0,1,.22-.67,1.33,1.33,0,0,1,.78-.55H22a2.5,2.5,0,0,1,1.67,1.45,5,5,0,0,1,.11,1.11A7.8,7.8,0,0,1,23.8,21.27Z"/><path class="cls-1" d="M33.86,8.79l12.57.1,6.75,13.25L59.53,8.9l12.28-.16-18,34.39-12-.07,5-9.92Z"/><path class="cls-1" d="M75.79,42.69H64.2c1.62-4.09,3.52-8.91,5-12.69,1.13-2.87,2.34-5.7,3.45-8.58,2.87-7.42,3.51-9.88,6.25-11.59a11.17,11.17,0,0,1,5.23-1.56A11.69,11.69,0,0,1,90,9.5c2.53,1.4,3.26,3.62,5.79,10.25,0,0,.68,1.77,5.69,14.38,1.49,3.74,2.76,6.74,3.56,8.56H92.84q-4.19-11.13-8.35-22.27Z"/><path class="cls-1" d="M135.37,43c-.23-.33,0-8.47,0-8.47s-18.5-.33-18.5-.56V29.78h17.94v-8H116.87V18.08h18.5V8.94H110.18a4.53,4.53,0,0,0-4.57,3.56l-.33,26.64a4.64,4.64,0,0,0,1.78,3,4.58,4.58,0,0,0,2.78.89Z"/><path class="cls-1" d="M171.38,33.12a8.44,8.44,0,0,0-2.68-5.79A7,7,0,0,0,166.25,26a5.82,5.82,0,0,0,3-2.12,5.72,5.72,0,0,0,1.11-3.34,20,20,0,0,0,0-3.12,9.72,9.72,0,0,0-.66-3.57,8.17,8.17,0,0,0-2.34-2.9,10.88,10.88,0,0,0-3.57-2H141.29a7.17,7.17,0,0,0-3.9,3.9c0,14.7.11,25.5.33,26.75A3.9,3.9,0,0,0,138.3,41a3.64,3.64,0,0,0,1.2,1,6.9,6.9,0,0,0,2.79,1l21.29.45a8.66,8.66,0,0,0,5-2C172,38.58,171.47,34,171.38,33.12ZM149,18.19h8.24a1.84,1.84,0,0,1,1.56,3,2,2,0,0,1-1.33.67H149Zm10.36,15.16a2.09,2.09,0,0,1-1.11.66h-9.14V29.89c3.81,0,6.62.05,8.47,0a2.18,2.18,0,0,1,1.56.45A2.33,2.33,0,0,1,159.34,33.35Z"/><path class="cls-1" d="M211.67,9.12V37.87a8.42,8.42,0,0,0,2.67,3.79,9,9,0,0,0,9.92.45A8.45,8.45,0,0,0,226.6,40l10.14-17.5-.33,20.62h11V14.35a8.21,8.21,0,0,0-2.78-4,8.83,8.83,0,0,0-9.36-.44,8.31,8.31,0,0,0-1.9,1.44q-5.24,9.09-10.48,18.17V9.12Z"/><path class="cls-1" d="M217.35.2h6.58a5.64,5.64,0,0,0,1.78,2.56,6.1,6.1,0,0,0,7.58-.11A5.22,5.22,0,0,0,234.74.2h6.8a10.15,10.15,0,0,1-1.12,3.68,10.24,10.24,0,0,1-2.45,3,16.1,16.1,0,0,1-4.12,1.89,14,14,0,0,1-9.14-.11,11.58,11.58,0,0,1-6-4.79A10.75,10.75,0,0,1,217.35.2Z"/><path class="cls-1" d="M191.4,8.68a18.23,18.23,0,1,0,18.38,18.23A18.3,18.3,0,0,0,191.4,8.68ZM180.92,21.22a1,1,0,0,1,.18-.48A12.57,12.57,0,0,1,183,18.4a16,16,0,0,1,1.51-1.27q.56-.4,1.08-.72a9.48,9.48,0,0,1,2.52-1.08,17.55,17.55,0,0,1,5.77-.12,9.35,9.35,0,0,1,3.07,1.08,12.68,12.68,0,0,1,2,1.45c.36.28.65.54.85.72l1.32,1.5.6.9a1.68,1.68,0,0,1,.18.36,1.08,1.08,0,0,1,0,.84.61.61,0,0,1-.12.18l-.72.67v.24l-.36.24-7.28.72a4.64,4.64,0,0,0-.6-.24,4.52,4.52,0,0,0-.9-.24,3.88,3.88,0,0,0-.6-.06,2.71,2.71,0,0,0-.48.06,3.68,3.68,0,0,0-.48.12c-.15,0-.21.07-.36.12l-.6.18-7.16-.9-.36-.24v-.36a1.11,1.11,0,0,0-.18-.12l-.3-.19a.92.92,0,0,1-.36-.42A1,1,0,0,1,180.92,21.22Zm9,15.75v.37l-.3.06c0,.11-.1.28-.18.48a4,4,0,0,1-.18.36,1.52,1.52,0,0,1-.43.36c-.51.28-1.7-.22-2-.36A12.27,12.27,0,0,1,184.47,37a10.58,10.58,0,0,1-1.33-1.08,11.75,11.75,0,0,1-1.56-1.8A13.61,13.61,0,0,1,179.66,30a11.93,11.93,0,0,1-.36-2.7,2.48,2.48,0,0,1,.12-.91,1.54,1.54,0,0,1,.12-.3,1,1,0,0,1,.3-.24.94.94,0,0,1,.36-.12h.9v-.3h.36l1.86.78c2.12,1,3.67,1.71,4.21,2a3.66,3.66,0,0,1,1,.72,2,2,0,0,1,.3.42,3.68,3.68,0,0,1,.25.48A72.12,72.12,0,0,1,190,37Zm1.44-8a1.78,1.78,0,1,1,1.77-1.78A1.78,1.78,0,0,1,191.32,29Zm11.73,1.41a13.68,13.68,0,0,1-2.06,4,12,12,0,0,1-1.63,1.75,11.43,11.43,0,0,1-1.36,1,12.92,12.92,0,0,1-2.33,1.18c-.34.13-1.54.59-2,.29a1.32,1.32,0,0,1-.41-.38A1.76,1.76,0,0,1,193,38c-.07-.2-.13-.37-.16-.49l-.3-.07V37h-.12a66.23,66.23,0,0,1,1.22-7.12,4,4,0,0,1,.25-.47,2.46,2.46,0,0,1,.32-.41,3.72,3.72,0,0,1,1-.69c.56-.25,2.13-.95,4.28-1.84l1.89-.71h.36v.3l.9,0a1.22,1.22,0,0,1,.36.13,1.29,1.29,0,0,1,.29.26,2.26,2.26,0,0,1,.11.3,2.71,2.71,0,0,1,.09.91A12.23,12.23,0,0,1,203.05,30.42Z"/></g></g></svg>